<?xml version="1.0" encoding="UTF-8" standalone="no"?>
<!-- Created with Inkscape (http://www.inkscape.org/) -->
<svg
   xmlns:svg="http://www.w3.org/2000/svg"
   xmlns="http://www.w3.org/2000/svg"
   xmlns:xlink="http://www.w3.org/1999/xlink"
   xmlns:inkscape="http://www.inkscape.org/namespaces/inkscape"
   version="1.0"
   width="850"
   height="570"
   id="svg2">
  <defs
     id="defs4">
    <linearGradient
       id="linearGradient16361">
      <stop
         style="stop-color:#69b631;stop-opacity:1"
         offset="0"
         id="stop16363" />
      <stop
         style="stop-color:#ffffff;stop-opacity:1"
         offset="1"
         id="stop16365" />
    </linearGradient>
    <linearGradient
       id="linearGradient13712">
      <stop
         style="stop-color:#9d58a0;stop-opacity:1"
         offset="0"
         id="stop13714" />
      <stop
         style="stop-color:#bb2bd7;stop-opacity:1"
         offset="1"
         id="stop13716" />
    </linearGradient>
    <linearGradient
       id="linearGradient4859">
      <stop
         style="stop-color:#ffffff;stop-opacity:1"
         offset="0"
         id="stop4861" />
      <stop
         style="stop-color:#ffffff;stop-opacity:0"
         offset="1"
         id="stop4863" />
    </linearGradient>
    <linearGradient
       id="linearGradient3100">
      <stop
         style="stop-color:#e99d30;stop-opacity:1"
         offset="0"
         id="stop3102" />
      <stop
         style="stop-color:#e99d30;stop-opacity:0"
         offset="1"
         id="stop3104" />
    </linearGradient>
    <linearGradient
       x1="456.92114"
       y1="552.36664"
       x2="485.71429"
       y2="466.64789"
       id="linearGradient3106"
       xlink:href="#linearGradient3100"
       gradientUnits="userSpaceOnUse"
       gradientTransform="matrix(0.420736,0,0,0.424242,487.2821,-111.3069)" />
    <linearGradient
       x1="117.78982"
       y1="514.12817"
       x2="165.93407"
       y2="514.12817"
       id="linearGradient4865"
       xlink:href="#linearGradient4859"
       gradientUnits="userSpaceOnUse"
       gradientTransform="matrix(-0.649006,-8.238005e-2,0.599007,-0.629245,364.3107,373.6634)" />
    <linearGradient
       x1="90.549141"
       y1="617.42798"
       x2="144.02252"
       y2="638.20612"
       id="linearGradient13705"
       xlink:href="#linearGradient13712"
       gradientUnits="userSpaceOnUse"
       gradientTransform="matrix(-1,0,0,-1.717949,803.2392,1241.663)" />
    <linearGradient
       x1="456.92114"
       y1="552.36664"
       x2="485.71429"
       y2="466.64789"
       id="linearGradient15484"
       xlink:href="#linearGradient3100"
       gradientUnits="userSpaceOnUse"
       gradientTransform="matrix(0.420736,0,0,0.424242,-21.0045,-115.4463)" />
    <linearGradient
       x1="117.78982"
       y1="514.12817"
       x2="165.93407"
       y2="514.12817"
       id="linearGradient15486"
       xlink:href="#linearGradient4859"
       gradientUnits="userSpaceOnUse"
       gradientTransform="matrix(-0.649006,-8.238005e-2,0.599007,-0.629245,-143.9758,369.524)" />
    <linearGradient
       x1="90.549141"
       y1="617.42798"
       x2="528.74286"
       y2="756.71814"
       id="linearGradient16367"
       xlink:href="#linearGradient16361"
       gradientUnits="userSpaceOnUse"
       gradientTransform="matrix(-1,0,0,-1.717949,294.9527,1241.678)" />
    <linearGradient
       x1="335.0011"
       y1="216.04376"
       x2="335.0011"
       y2="236.74471"
       id="linearGradient7130"
       xlink:href="#linearGradient5158"
       gradientUnits="userSpaceOnUse" />
    <filter
       id="filter7120">
      <feGaussianBlur
         inkscape:collect="always"
         stdDeviation="3.92425"
         id="feGaussianBlur7122" />
    </filter>
    <linearGradient
       x1="335.0011"
       y1="216.04376"
       x2="335.0011"
       y2="236.74471"
       id="linearGradient5164"
       xlink:href="#linearGradient5158"
       gradientUnits="userSpaceOnUse" />
    <linearGradient
       id="linearGradient5158">
      <stop
         style="stop-color:#e6e699;stop-opacity:1"
         offset="0"
         id="stop5160" />
      <stop
         style="stop-color:#aeae2a;stop-opacity:1"
         offset="1"
         id="stop5162" />
    </linearGradient>
  </defs>
  <g
     id="layer1">
    <path
       d="M 523.72212,227.92859 C 523.71287,176.03409 565.56978,133.96035 617.20609,133.96035 C 668.8424,133.96035 710.69931,176.03409 710.69006,227.92859"
       style="opacity:1;fill:url(#linearGradient13705);fill-opacity:1;fill-rule:nonzero;stroke:#841ad5;stroke-width:5.24282217;stroke-linecap:butt;stroke-linejoin:miter;stroke-miterlimit:4;stroke-dasharray:none;stroke-opacity:1"
       id="path7520" />
    <path
       d="M 693.95744,86.600107 C 693.9674,128.02851 660.38586,161.61815 618.95749,161.61815 C 577.52912,161.61815 543.94758,128.02851 543.95754,86.600107 C 543.94758,45.171707 577.52912,11.582068 618.95749,11.582068 C 660.38586,11.582068 693.9674,45.171707 693.95744,86.600107 L 693.95744,86.600107 z "
       style="opacity:1;fill:#eeac4d;fill-opacity:1;fill-rule:nonzero;stroke:#854b12;stroke-width:4;stroke-linecap:butt;stroke-linejoin:miter;stroke-miterlimit:4;stroke-dasharray:none;stroke-opacity:1"
       id="path1307" />
    <path
       d="M 691.63957,86.664689 C 691.64923,126.83765 659.08532,159.40939 618.91235,159.40939 C 578.73938,159.40939 546.17546,126.83765 546.18512,86.664689 C 546.17546,46.491736 578.73938,13.919997 618.91235,13.919997 C 659.08532,13.919997 691.64923,46.491736 691.63957,86.664689 L 691.63957,86.664689 z "
       style="opacity:1;fill:url(#linearGradient3106);fill-opacity:1;fill-rule:nonzero;stroke:none;stroke-width:5;stroke-linecap:butt;stroke-linejoin:miter;stroke-miterlimit:4;stroke-dasharray:none;stroke-opacity:1"
       id="path1352" />
    <path
       d="M 633.88718,45.913053 C 621.49223,39.984613 601.17872,37.964023 578.85238,56.498823 C 566.36409,66.866313 543.56513,62.902013 551.48444,53.578663 C 572.37021,28.989963 570.45306,18.797864 621.43749,12.192284 C 641.74855,9.5607739 667.90704,25.108463 684.44829,50.118253 C 693.19113,63.337113 688.45313,72.011633 633.88718,45.913053 z "
       style="fill:#854b12;fill-opacity:1;fill-rule:nonzero;stroke:none;stroke-width:4;stroke-linecap:butt;stroke-linejoin:miter;stroke-miterlimit:4;stroke-opacity:1"
       id="path3108" />
    <path
       d="M 564.58487,36.481119 C 574.86729,25.674573 590.20494,17.799726 598.83631,18.895328 C 607.46767,19.99093 606.1218,29.641792 595.83077,40.447243 C 585.54836,51.253789 570.2107,59.128636 561.57934,58.033034 C 552.94798,56.937432 554.29384,47.28657 564.58487,36.481119 z "
       style="opacity:0.30901292;fill:url(#linearGradient4865);fill-opacity:1;fill-rule:nonzero;stroke:none;stroke-width:4;stroke-linecap:butt;stroke-linejoin:miter;stroke-miterlimit:4;stroke-dasharray:none;stroke-opacity:1"
       id="path3984" />
    <path
       d="M 550.58361,56.77722 C 551.51543,64.616556 541.05247,72.014079 527.2153,73.299078 C 513.37813,74.584077 501.40787,69.269833 500.48054,61.430079 C 499.54872,53.590743 510.01168,46.193221 523.84885,44.908221 C 537.68602,43.623222 549.65628,48.937466 550.58361,56.77722 L 550.58361,56.77722 z "
       style="opacity:1;fill:#854b12;fill-opacity:1;fill-rule:nonzero;stroke:none;stroke-width:4;stroke-linecap:butt;stroke-linejoin:miter;stroke-miterlimit:4;stroke-dasharray:none;stroke-opacity:1"
       id="path5740" />
    <path
       d="M 736.07595,56.814051 C 735.47832,64.685922 723.78505,69.926575 709.95984,68.51869 C 696.13463,67.110804 685.41407,59.587646 686.0162,51.716233 C 686.61383,43.844362 698.3071,38.603709 712.13231,40.011595 C 725.95752,41.41948 736.67808,48.942638 736.07595,56.814051 L 736.07595,56.814051 z "
       style="opacity:1;fill:#854b12;fill-opacity:1;fill-rule:nonzero;stroke:none;stroke-width:4;stroke-linecap:butt;stroke-linejoin:miter;stroke-miterlimit:4;stroke-dasharray:none;stroke-opacity:1"
       id="path6615" />
    <path
       d="M 15.43562,227.94392 C 15.42637,176.04942 57.28328,133.97568 108.91959,133.97568 C 160.5559,133.97568 202.41281,176.04942 202.40356,227.94392"
       style="opacity:1;fill:url(#linearGradient16367);fill-opacity:1;fill-rule:nonzero;stroke:#008d00;stroke-width:5.24300003;stroke-linecap:butt;stroke-linejoin:miter;stroke-miterlimit:4;stroke-dasharray:none;stroke-opacity:1"
       id="path15466" />
    <path
       d="M 185.67086,82.46075 C 185.68082,123.88915 152.09928,157.47879 110.67091,157.47879 C 69.24254,157.47879 35.661,123.88915 35.67096,82.46075 C 35.661,41.03235 69.24254,7.44271 110.67091,7.44271 C 152.09928,7.44271 185.68082,41.03235 185.67086,82.46075 L 185.67086,82.46075 z "
       style="opacity:1;fill:#eeac4d;fill-opacity:1;fill-rule:nonzero;stroke:#854b12;stroke-width:4;stroke-linecap:butt;stroke-linejoin:miter;stroke-miterlimit:4;stroke-dasharray:none;stroke-opacity:1"
       id="path15470" />
    <path
       d="M 183.35299,82.52533 C 183.36265,122.69829 150.79873,155.27003 110.62576,155.27003 C 70.45279,155.27003 37.88888,122.69829 37.89854,82.52533 C 37.88888,42.35238 70.45279,9.78064 110.62576,9.78064 C 150.79873,9.78064 183.36265,42.35238 183.35299,82.52533 L 183.35299,82.52533 z "
       style="opacity:1;fill:url(#linearGradient15484);fill-opacity:1;fill-rule:nonzero;stroke:none;stroke-width:5;stroke-linecap:butt;stroke-linejoin:miter;stroke-miterlimit:4;stroke-dasharray:none;stroke-opacity:1"
       id="path15472" />
    <path
       d="M 125.60067,41.7737 C 113.20572,35.84526 92.8922,33.82467 70.56586,52.35947 C 58.07757,62.72696 35.27861,58.76266 43.19792,49.43931 C 64.08369,24.85061 62.16654,14.65851 113.15098,8.05293 C 133.46204,5.42142 159.62053,20.96911 176.16178,45.9789 C 184.90462,59.19776 180.16662,67.87228 125.60067,41.7737 z "
       style="fill:#854b12;fill-opacity:1;fill-rule:nonzero;stroke:none;stroke-width:4;stroke-linecap:butt;stroke-linejoin:miter;stroke-miterlimit:4;stroke-opacity:1"
       id="path15474" />
    <path
       d="M 56.29837,32.34176 C 66.58079,21.53522 81.91844,13.66037 90.54981,14.75597 C 99.18117,15.85158 97.8353,25.50244 87.54427,36.30789 C 77.26186,47.11443 61.9242,54.98928 53.29284,53.89368 C 44.66148,52.79808 46.00734,43.14721 56.29837,32.34176 z "
       style="opacity:0.30901292;fill:url(#linearGradient15486);fill-opacity:1;fill-rule:nonzero;stroke:none;stroke-width:4;stroke-linecap:butt;stroke-linejoin:miter;stroke-miterlimit:4;stroke-dasharray:none;stroke-opacity:1"
       id="path15476" />
    <g
       transform="matrix(0.302415,0,0,0.302415,32.62168,212.8288)"
       id="g17316">
      <g
         transform="translate(0,1.500626)"
         id="g7124">
        <rect
           width="519.28632"
           height="330.10138"
           x="483.63443"
           y="69.452713"
           style="opacity:1;fill:#ffff4f;fill-opacity:0.98039216;fill-rule:nonzero;stroke:#000000;stroke-width:14.78715801;stroke-linecap:butt;stroke-linejoin:miter;stroke-miterlimit:4;stroke-dasharray:none;stroke-opacity:1"
           id="rect1357" />
        <path
           d="M 88.279545,88.849734 C 31.188645,88.849734 -15.149955,141.10993 -15.149955,205.48613 C -15.149955,269.86233 31.188645,322.10013 88.279545,322.10013 C 133.70734,322.10013 172.32414,289.03133 186.20654,243.08193 L 270.81029,243.08193 L 441.94069,241.91463 L 413.28939,324.35153 L 525.75559,324.35153 L 489.50419,241.35153 L 544.20799,241.07483 L 543.26569,183.32783 L 182.38904,184.11053 C 167.92054,139.37943 132.93424,88.849734 88.279545,88.849734 z "
           style="opacity:1;fill:#76ff77;fill-opacity:0.88235294;stroke:#000000;stroke-width:11.08277225;stroke-linecap:butt;stroke-linejoin:miter;stroke-miterlimit:4;stroke-dasharray:none;stroke-dashoffset:0;stroke-opacity:1"
           id="path24340" />
        <path
           d="M 101.41234,182.57821 C 116.09464,182.57821 127.99794,195.88032 127.99794,212.26652 C 127.99794,228.65261 116.09464,241.95472 101.41234,241.95472 C 86.730145,241.95472 74.804445,228.65261 74.804445,212.26652 C 74.804445,195.88032 86.730045,182.57821 101.41234,182.57821 z "
           style="opacity:1;fill:#ffffff;fill-opacity:1;fill-rule:nonzero;stroke:#000000;stroke-width:8.40058231;stroke-linecap:butt;stroke-linejoin:miter;stroke-miterlimit:4;stroke-dasharray:none;stroke-dashoffset:0;stroke-opacity:1"
           id="path24342" />
        <rect
           width="140.41501"
           height="140.41539"
           ry="0"
           x="241.78206"
           y="134.72183"
           style="opacity:1;fill:#ffffff;fill-opacity:1;fill-rule:nonzero;stroke:#000000;stroke-width:7.56548834;stroke-linecap:butt;stroke-linejoin:miter;stroke-miterlimit:4;stroke-dasharray:none;stroke-opacity:1"
           id="rect24344" />
        <path
           d="M 307.11719,163.19352 L 287.85159,215.43562 L 326.45319,215.43562 L 307.11719,163.19352 M 299.10159,149.20132 L 315.20319,149.20132 L 355.21099,254.17782 L 340.44539,254.17782 L 330.88289,227.24812 L 283.56249,227.24812 L 273.99999,254.17782 L 259.02349,254.17782 L 299.10159,149.20132"
           style="font-size:158.72227478px;font-style:normal;font-variant:normal;font-weight:normal;font-stretch:normal;text-align:start;line-height:50%;writing-mode:lr-tb;text-anchor:start;fill:#000000;fill-opacity:1;stroke:none;stroke-width:1px;stroke-linecap:butt;stroke-linejoin:miter;stroke-opacity:1;font-family:Bitstream Vera Sans"
           id="path24346" />
        <path
           d="M 1032.6023,1010.6889 C 1539.4859,1010.6889 1539.4859,1010.6889 1539.4859,1010.6889"
           style="fill:none;fill-opacity:0.75;fill-rule:evenodd;stroke:#000000;stroke-width:23.3469677;stroke-linecap:butt;stroke-linejoin:miter;stroke-miterlimit:4;stroke-dasharray:none;stroke-opacity:1"
           id="path24350" />
        <path
           d="M 642.96434,166.6372 L 642.96434,219.02795 L 628.70413,219.02795 L 628.70413,167.10221 C 628.70406,158.88715 627.10237,152.73874 623.89906,148.65695 C 620.69562,144.57529 615.89056,142.53443 609.48386,142.53436 C 601.78537,142.53443 595.71445,144.98863 591.2711,149.89696 C 586.82767,154.80543 584.60597,161.49635 584.606,169.96975 L 584.606,219.02795 L 570.26829,219.02795 L 570.26829,98.436226 L 584.606,98.436226 L 584.606,145.7119 C 588.01602,140.49357 592.02024,136.59269 596.61867,134.00924 C 601.26869,131.42595 606.61627,130.13427 612.6614,130.13418 C 622.63315,130.13427 630.17658,133.23431 635.29173,139.43431 C 640.40672,145.58281 642.96425,154.65043 642.96434,166.6372 M 745.80831,172.06228 L 745.80831,179.03738 L 680.24237,179.03738 C 680.86235,188.85422 683.80739,196.34599 689.0775,201.5127 C 694.3992,206.62779 701.78763,209.18532 711.24281,209.18531 C 716.7195,209.18532 722.0154,208.51365 727.13054,207.17028 C 732.29721,205.82694 737.41227,203.81192 742.47576,201.1252 L 742.47576,214.61039 C 737.36061,216.78042 732.11637,218.43378 726.74304,219.57046 C 721.36956,220.70714 715.91865,221.27548 710.3903,221.27549 C 696.5434,221.27548 685.56408,217.24543 677.45233,209.18531 C 669.3922,201.12522 665.36215,190.2234 665.36216,176.47984 C 665.36215,162.27136 669.18553,151.00788 676.83232,142.68936 C 684.53074,134.31932 694.89004,130.13427 707.91027,130.13418 C 719.58704,130.13427 728.80966,133.90599 735.57816,141.44934 C 742.39817,148.94119 745.80822,159.14549 745.80831,172.06228 M 731.5481,167.87722 C 731.44469,160.0755 729.24883,153.84959 724.96051,149.19945 C 720.72372,144.54946 715.09198,142.22443 708.06527,142.22435 C 700.10844,142.22443 693.72753,144.47196 688.92249,148.96695 C 684.16906,153.46208 681.43069,159.79133 680.70738,167.95472 L 731.5481,167.87722 M 769.21363,98.436226 L 783.47384,98.436226 L 783.47384,219.02795 L 769.21363,219.02795 L 769.21363,98.436226 M 813.23426,98.436226 L 827.49447,98.436226 L 827.49447,219.02795 L 813.23426,219.02795 L 813.23426,98.436226 M 890.89038,142.22435 C 883.24356,142.22443 877.19848,145.22114 872.75512,151.21448 C 868.31169,157.1563 866.09,165.31974 866.09002,175.70483 C 866.09,186.09001 868.28586,194.27929 872.67762,200.27269 C 877.12098,206.21445 883.19189,209.18532 890.89038,209.18531 C 898.48543,209.18532 904.50468,206.18862 908.94814,200.19518 C 913.39146,194.20179 915.61316,186.03835 915.61323,175.70483 C 915.61316,165.42307 913.39146,157.28546 908.94814,151.29198 C 904.50468,145.24697 898.48543,142.22443 890.89038,142.22435 M 890.89038,130.13418 C 903.29049,130.13427 913.02979,134.16432 920.1083,142.22435 C 927.18665,150.28454 930.72586,161.44469 930.72595,175.70483 C 930.72586,189.9134 927.18665,201.07355 920.1083,209.18531 C 913.02979,217.24543 903.29049,221.27548 890.89038,221.27549 C 878.4385,221.27548 868.67337,217.24543 861.59496,209.18531 C 854.56818,201.07355 851.0548,189.9134 851.05481,175.70483 C 851.0548,161.44469 854.56818,150.28454 861.59496,142.22435 C 868.67337,134.16432 878.4385,130.13427 890.89038,130.13418"
           style="font-size:158.72227478px;font-style:normal;font-variant:normal;font-weight:normal;font-stretch:normal;text-align:start;line-height:125%;writing-mode:lr-tb;text-anchor:start;fill:#000000;fill-opacity:1;stroke:none;stroke-width:1px;stroke-linecap:butt;stroke-linejoin:miter;stroke-opacity:1;font-family:Bitstream Vera Sans"
           id="text2232" />
        <path
           d="M 610.10387,263.17883 L 588.86856,320.76214 L 631.41667,320.76214 L 610.10387,263.17883 M 601.26874,247.75608 L 619.01649,247.75608 L 663.11462,363.46524 L 646.83939,363.46524 L 636.29924,333.78233 L 584.141,333.78233 L 573.60084,363.46524 L 557.09311,363.46524 L 601.26874,247.75608 M 679.31236,242.87352 L 693.57256,242.87352 L 693.57256,363.46524 L 679.31236,363.46524 L 679.31236,242.87352 M 723.33299,276.664 L 737.59319,276.664 L 737.59319,363.46524 L 723.33299,363.46524 L 723.33299,276.664 M 723.33299,242.87352 L 737.59319,242.87352 L 737.59319,260.93128 L 723.33299,260.93128 L 723.33299,242.87352 M 829.8195,279.99654 L 829.8195,293.32673 C 825.78938,291.10512 821.73349,289.45176 817.65184,288.36666 C 813.62172,287.23008 809.54,286.66172 805.40666,286.66165 C 796.15815,286.66172 788.97639,289.60674 783.86135,295.49676 C 778.74625,301.33526 776.18872,309.55036 776.18874,320.14213 C 776.18872,330.73397 778.74625,338.97493 783.86135,344.86498 C 788.97639,350.70341 796.15815,353.62261 805.40666,353.62261 C 809.54,353.62261 813.62172,353.08011 817.65184,351.99508 C 821.73349,350.8584 825.78938,349.17921 829.8195,346.9575 L 829.8195,360.1327 C 825.84105,361.99273 821.70766,363.38773 817.41933,364.31775 C 813.18254,365.24776 808.66165,365.71278 803.85664,365.71278 C 790.78475,365.71278 780.39961,361.60522 772.70119,353.39008 C 765.00274,345.17502 761.15352,334.09237 761.15353,320.14213 C 761.15352,305.9853 765.02857,294.85099 772.7787,286.73916 C 780.58044,278.62746 791.24976,274.57155 804.78665,274.57148 C 809.17833,274.57155 813.46672,275.03657 817.65184,275.96648 C 821.83683,276.84491 825.89272,278.18826 829.8195,279.99654 M 929.02092,316.49959 L 929.02092,323.47467 L 863.455,323.47467 C 864.07498,333.29151 867.02,340.78327 872.29011,345.94998 C 877.61184,351.06507 885.00026,353.62261 894.45544,353.62261 C 899.93212,353.62261 905.22802,352.95095 910.34318,351.60757 C 915.50982,350.26425 920.62491,348.2492 925.68838,345.5625 L 925.68838,359.04767 C 920.57323,361.2177 915.32898,362.87106 909.95567,364.00774 C 904.58219,365.14443 899.13127,365.71278 893.60294,365.71278 C 879.75601,365.71278 868.77669,361.68273 860.66496,353.62261 C 852.60481,345.5625 848.57479,334.66069 848.57479,320.91713 C 848.57479,306.70864 852.39814,295.44518 860.04495,287.12664 C 867.74335,278.75662 878.10265,274.57155 891.1229,274.57148 C 902.79967,274.57155 912.0223,278.34328 918.79078,285.88663 C 925.61081,293.37848 929.02086,303.58277 929.02092,316.49959 M 914.76072,312.31451 C 914.65732,304.51278 912.46146,298.28687 908.17315,293.63674 C 903.93636,288.98677 898.30459,286.66172 891.27789,286.66165 C 883.32108,286.66172 876.94014,288.90926 872.13512,293.40424 C 867.38169,297.89936 864.64333,304.22864 863.91999,312.39202 L 914.76072,312.31451"
           style="font-size:48px;font-style:normal;font-variant:normal;font-weight:normal;font-stretch:normal;text-align:start;line-height:125%;writing-mode:lr-tb;text-anchor:start;fill:#000000;fill-opacity:1;stroke:none;stroke-width:1px;stroke-linecap:butt;stroke-linejoin:miter;stroke-opacity:1;font-family:Bitstream Vera Sans"
           id="text2237" />
        <path
           d="M 727.80223,435.30475 C 727.80223,702.7168 727.80223,702.7168 727.80223,702.7168"
           style="fill:none;fill-opacity:0.75;fill-rule:evenodd;stroke:#000000;stroke-width:23.14699936;stroke-linecap:butt;stroke-linejoin:miter;stroke-miterlimit:4;stroke-dasharray:none;stroke-opacity:1"
           id="path2248" />
        <path
           d="M 1927.4173,525.96256 C 1927.4173,793.37463 1927.4173,793.37463 1927.4173,793.37463"
           style="fill:none;fill-opacity:0.75;fill-rule:evenodd;stroke:#000000;stroke-width:23.14699936;stroke-linecap:butt;stroke-linejoin:miter;stroke-miterlimit:4;stroke-dasharray:none;stroke-opacity:1"
           id="path3123" />
        <path
           d="M 152.96133,541.11595 L 143.65989,525.1598 L 134.49218,509.12644 L 152.96133,509.04923 L 171.43049,509.12644 L 162.26278,525.1598 L 152.96133,541.11595 z "
           transform="matrix(2.089143,0,0,2.435277,406.654,-549.2226)"
           style="opacity:1;fill:#000000;fill-opacity:1;fill-rule:nonzero;stroke:#000000;stroke-width:7;stroke-linecap:butt;stroke-linejoin:miter;stroke-miterlimit:4;stroke-dasharray:none;stroke-opacity:1"
           id="path3125" />
        <path
           d="M 152.96133,541.11595 L 143.65989,525.1598 L 134.49218,509.12644 L 152.96133,509.04923 L 171.43049,509.12644 L 162.26278,525.1598 L 152.96133,541.11595 z "
           transform="matrix(-2.089142,0,0,-2.435276,2246.81,1766.534)"
           style="opacity:1;fill:#000000;fill-opacity:1;fill-rule:nonzero;stroke:#000000;stroke-width:7;stroke-linecap:butt;stroke-linejoin:miter;stroke-miterlimit:4;stroke-dasharray:none;stroke-opacity:1"
           id="path4000" />
        <rect
           width="558.45923"
           height="330.10138"
           x="443.96973"
           y="832.89178"
           style="opacity:1;fill:#ffff4f;fill-opacity:0.98039216;fill-rule:nonzero;stroke:#000000;stroke-width:15.33476067;stroke-linecap:butt;stroke-linejoin:miter;stroke-miterlimit:4;stroke-dasharray:none;stroke-opacity:1"
           id="rect4002" />
        <rect
           width="551.54633"
           height="330.10138"
           x="1622.5028"
           y="832.89142"
           style="opacity:1;fill:#ffff4f;fill-opacity:0.98039216;fill-rule:nonzero;stroke:#000000;stroke-width:15.23955441;stroke-linecap:butt;stroke-linejoin:miter;stroke-miterlimit:4;stroke-dasharray:none;stroke-opacity:1"
           id="rect4004" />
        <path
           d="M 152.96133,541.11595 L 143.65989,525.1598 L 134.49218,509.12644 L 152.96133,509.04923 L 171.43049,509.12644 L 162.26278,525.1598 L 152.96133,541.11595 z "
           transform="matrix(0,2.089142,2.435276,0,259.6835,687.7312)"
           style="opacity:1;fill:#000000;fill-opacity:1;fill-rule:nonzero;stroke:#000000;stroke-width:7;stroke-linecap:butt;stroke-linejoin:miter;stroke-miterlimit:4;stroke-dasharray:none;stroke-opacity:1"
           id="path4006" />
        <path
           d="M 2592.6326,881.90729 C 2649.7235,881.90729 2696.0621,934.16739 2696.0621,998.54369 C 2696.0621,1062.92 2649.7235,1115.1578 2592.6326,1115.1578 C 2547.2048,1115.1578 2508.5879,1082.0889 2494.7056,1036.1395 L 2410.1018,1036.1395 L 2238.9713,1034.9722 L 2267.6226,1117.4092 L 2155.1565,1117.4092 L 2191.4079,1034.4091 L 2136.7041,1034.1324 L 2137.6463,976.38539 L 2498.523,977.16799 C 2512.9916,932.43689 2547.9779,881.90729 2592.6326,881.90729 z "
           style="opacity:1;fill:#ffa576;fill-opacity:0.88235294;stroke:#000000;stroke-width:11.08277225;stroke-linecap:butt;stroke-linejoin:miter;stroke-miterlimit:4;stroke-dasharray:none;stroke-dashoffset:0;stroke-opacity:1"
           id="path2221" />
        <path
           d="M 2599.6965,950.66424 C 2585.0142,950.66424 2573.1109,963.96624 2573.1109,980.35248 C 2573.1109,996.73868 2585.0142,1010.0407 2599.6965,1010.0407 C 2614.3788,1010.0407 2626.3044,996.73868 2626.3044,980.35248 C 2626.3044,963.96624 2614.3788,950.66424 2599.6965,950.66424 z "
           style="opacity:1;fill:#ffffff;fill-opacity:1;fill-rule:nonzero;stroke:#000000;stroke-width:8.40058231;stroke-linecap:butt;stroke-linejoin:miter;stroke-miterlimit:4;stroke-dasharray:none;stroke-dashoffset:0;stroke-opacity:1"
           id="path5166" />
        <rect
           width="140.41501"
           height="140.41539"
           ry="0"
           x="-2434.3901"
           y="920.94281"
           transform="scale(-1,1)"
           style="opacity:1;fill:#ffffff;fill-opacity:1;fill-rule:nonzero;stroke:#000000;stroke-width:7.56548834;stroke-linecap:butt;stroke-linejoin:miter;stroke-miterlimit:4;stroke-dasharray:none;stroke-opacity:1"
           id="rect22563" />
        <path
           d="M 2359.8071,952.85337 L 2379.0727,1005.0956 L 2340.4712,1005.0956 L 2359.8071,952.85337 M 2367.8227,938.86117 L 2351.7212,938.86117 L 2311.7134,1043.8378 L 2326.479,1043.8378 L 2336.0415,1016.9081 L 2383.3618,1016.9081 L 2392.9243,1043.8378 L 2407.9009,1043.8378 L 2367.8227,938.86117"
           style="font-size:158.72227478px;font-style:normal;font-variant:normal;font-weight:normal;font-stretch:normal;text-align:start;line-height:50%;writing-mode:lr-tb;text-anchor:start;fill:#000000;fill-opacity:1;stroke:none;stroke-width:1px;stroke-linecap:butt;stroke-linejoin:miter;stroke-opacity:1;font-family:Bitstream Vera Sans"
           id="path24328" />
        <rect
           width="519.28632"
           height="330.10138"
           x="1694.3035"
           y="69.453735"
           style="opacity:1;fill:#ffff4f;fill-opacity:0.98039216;fill-rule:nonzero;stroke:#000000;stroke-width:14.78715801;stroke-linecap:butt;stroke-linejoin:miter;stroke-miterlimit:4;stroke-dasharray:none;stroke-opacity:1"
           id="rect4110" />
        <path
           d="M 1853.6334,166.63822 L 1853.6334,219.02897 L 1839.3732,219.02897 L 1839.3732,167.10323 C 1839.3731,158.88817 1837.7714,152.73976 1834.5681,148.65797 C 1831.3647,144.57631 1826.5596,142.53545 1820.1529,142.53538 C 1812.4544,142.53545 1806.3835,144.98965 1801.9401,149.89798 C 1797.4967,154.80645 1795.275,161.49737 1795.275,169.97077 L 1795.275,219.02897 L 1780.9373,219.02897 L 1780.9373,98.437246 L 1795.275,98.437246 L 1795.275,145.71292 C 1798.6851,140.49459 1802.6893,136.59371 1807.2877,134.01026 C 1811.9377,131.42697 1817.2853,130.13529 1823.3304,130.1352 C 1833.3022,130.13529 1840.8456,133.23533 1845.9608,139.43533 C 1851.0758,145.58383 1853.6333,154.65145 1853.6334,166.63822 M 1956.4773,172.0633 L 1956.4773,179.0384 L 1890.9114,179.0384 C 1891.5314,188.85524 1894.4764,196.34701 1899.7465,201.51372 C 1905.0682,206.62881 1912.4566,209.18634 1921.9118,209.18633 C 1927.3885,209.18634 1932.6844,208.51467 1937.7996,207.1713 C 1942.9662,205.82796 1948.0813,203.81294 1953.1448,201.12622 L 1953.1448,214.61141 C 1948.0296,216.78144 1942.7854,218.4348 1937.4121,219.57148 C 1932.0386,220.70816 1926.5877,221.2765 1921.0593,221.27651 C 1907.2124,221.2765 1896.2331,217.24645 1888.1214,209.18633 C 1880.0612,201.12624 1876.0312,190.22442 1876.0312,176.48086 C 1876.0312,162.27238 1879.8546,151.0089 1887.5014,142.69038 C 1895.1998,134.32034 1905.5591,130.13529 1918.5793,130.1352 C 1930.2561,130.13529 1939.4787,133.90701 1946.2472,141.45036 C 1953.0672,148.94221 1956.4772,159.14651 1956.4773,172.0633 M 1942.2171,167.87824 C 1942.1137,160.07652 1939.9178,153.85061 1935.6295,149.20047 C 1931.3927,144.55048 1925.761,142.22545 1918.7343,142.22537 C 1910.7775,142.22545 1904.3965,144.47298 1899.5915,148.96797 C 1894.8381,153.4631 1892.0997,159.79235 1891.3764,167.95574 L 1942.2171,167.87824 M 1979.8826,98.437246 L 1994.1429,98.437246 L 1994.1429,219.02897 L 1979.8826,219.02897 L 1979.8826,98.437246 M 2023.9033,98.437246 L 2038.1635,98.437246 L 2038.1635,219.02897 L 2023.9033,219.02897 L 2023.9033,98.437246 M 2101.5594,142.22537 C 2093.9126,142.22545 2087.8675,145.22216 2083.4241,151.2155 C 2078.9807,157.15732 2076.759,165.32076 2076.759,175.70585 C 2076.759,186.09103 2078.9549,194.28031 2083.3466,200.27371 C 2087.79,206.21547 2093.8609,209.18634 2101.5594,209.18633 C 2109.1544,209.18634 2115.1737,206.18964 2119.6172,200.1962 C 2124.0605,194.20281 2126.2822,186.03937 2126.2822,175.70585 C 2126.2822,165.42409 2124.0605,157.28648 2119.6172,151.293 C 2115.1737,145.24799 2109.1544,142.22545 2101.5594,142.22537 M 2101.5594,130.1352 C 2113.9595,130.13529 2123.6988,134.16534 2130.7773,142.22537 C 2137.8557,150.28556 2141.3949,161.44571 2141.395,175.70585 C 2141.3949,189.91442 2137.8557,201.07457 2130.7773,209.18633 C 2123.6988,217.24645 2113.9595,221.2765 2101.5594,221.27651 C 2089.1075,221.2765 2079.3424,217.24645 2072.264,209.18633 C 2065.2372,201.07457 2061.7238,189.91442 2061.7238,175.70585 C 2061.7238,161.44571 2065.2372,150.28556 2072.264,142.22537 C 2079.3424,134.16534 2089.1075,130.13529 2101.5594,130.1352"
           style="font-size:158.72227478px;font-style:normal;font-variant:normal;font-weight:normal;font-stretch:normal;text-align:start;line-height:125%;writing-mode:lr-tb;text-anchor:start;fill:#000000;fill-opacity:1;stroke:none;stroke-width:1px;stroke-linecap:butt;stroke-linejoin:miter;stroke-opacity:1;font-family:Bitstream Vera Sans"
           id="path4112" />
        <path
           d="M 1820.7729,263.17985 L 1799.5376,320.76316 L 1842.0857,320.76316 L 1820.7729,263.17985 M 1811.9378,247.7571 L 1829.6855,247.7571 L 1873.7837,363.46626 L 1857.5084,363.46626 L 1846.9683,333.78335 L 1794.81,333.78335 L 1784.2699,363.46626 L 1767.7622,363.46626 L 1811.9378,247.7571 M 1889.9814,242.87454 L 1904.2416,242.87454 L 1904.2416,363.46626 L 1889.9814,363.46626 L 1889.9814,242.87454 M 1934.002,276.66502 L 1948.2622,276.66502 L 1948.2622,363.46626 L 1934.002,363.46626 L 1934.002,276.66502 M 1934.002,242.87454 L 1948.2622,242.87454 L 1948.2622,260.9323 L 1934.002,260.9323 L 1934.002,242.87454 M 2040.4885,279.99756 L 2040.4885,293.32775 C 2036.4584,291.10614 2032.4025,289.45278 2028.3209,288.36768 C 2024.2907,287.2311 2020.209,286.66274 2016.0757,286.66267 C 2006.8272,286.66274 1999.6454,289.60776 1994.5304,295.49778 C 1989.4153,301.33628 1986.8577,309.55138 1986.8578,320.14315 C 1986.8577,330.73499 1989.4153,338.97595 1994.5304,344.866 C 1999.6454,350.70443 2006.8272,353.62363 2016.0757,353.62363 C 2020.209,353.62363 2024.2907,353.08113 2028.3209,351.9961 C 2032.4025,350.85942 2036.4584,349.18023 2040.4885,346.95852 L 2040.4885,360.13372 C 2036.5101,361.99375 2032.3767,363.38875 2028.0883,364.31877 C 2023.8516,365.24878 2019.3307,365.7138 2014.5257,365.7138 C 2001.4538,365.7138 1991.0686,361.60624 1983.3702,353.3911 C 1975.6718,345.17604 1971.8225,334.09339 1971.8225,320.14315 C 1971.8225,305.98632 1975.6976,294.85201 1983.4477,286.74018 C 1991.2495,278.62848 2001.9188,274.57257 2015.4557,274.5725 C 2019.8473,274.57257 2024.1357,275.03759 2028.3209,275.9675 C 2032.5058,276.84593 2036.5617,278.18928 2040.4885,279.99756 M 2139.6899,316.50061 L 2139.6899,323.47569 L 2074.124,323.47569 C 2074.744,333.29253 2077.689,340.78429 2082.9591,345.951 C 2088.2809,351.06609 2095.6693,353.62363 2105.1245,353.62363 C 2110.6011,353.62363 2115.897,352.95197 2121.0122,351.60859 C 2126.1788,350.26527 2131.2939,348.25022 2136.3574,345.56352 L 2136.3574,359.04869 C 2131.2422,361.21872 2125.998,362.87208 2120.6247,364.00876 C 2115.2512,365.14545 2109.8003,365.7138 2104.272,365.7138 C 2090.425,365.7138 2079.4457,361.68375 2071.334,353.62363 C 2063.2738,345.56352 2059.2438,334.66171 2059.2438,320.91815 C 2059.2438,306.70966 2063.0672,295.4462 2070.714,287.12766 C 2078.4124,278.75764 2088.7717,274.57257 2101.7919,274.5725 C 2113.4687,274.57257 2122.6913,278.3443 2129.4598,285.88765 C 2136.2798,293.3795 2139.6899,303.58379 2139.6899,316.50061 M 2125.4297,312.31553 C 2125.3263,304.5138 2123.1305,298.28789 2118.8422,293.63776 C 2114.6054,288.98779 2108.9736,286.66274 2101.9469,286.66267 C 2093.9901,286.66274 2087.6092,288.91028 2082.8041,293.40526 C 2078.0507,297.90038 2075.3123,304.22966 2074.589,312.39304 L 2125.4297,312.31553"
           style="font-size:48px;font-style:normal;font-variant:normal;font-weight:normal;font-stretch:normal;text-align:start;line-height:125%;writing-mode:lr-tb;text-anchor:start;fill:#000000;fill-opacity:1;stroke:none;stroke-width:1px;stroke-linecap:butt;stroke-linejoin:miter;stroke-opacity:1;font-family:Bitstream Vera Sans"
           id="path4114" />
        <path
           d="M 555.1275,903.16864 L 523.73955,945.40675 L 556.75502,989.96989 L 539.93728,989.96989 L 514.67192,955.8694 L 489.40656,989.96989 L 472.58881,989.96989 L 506.3018,944.55424 L 475.45636,903.16864 L 492.2741,903.16864 L 515.29193,934.09159 L 538.30976,903.16864 L 555.1275,903.16864 M 612.40081,884.56838 C 604.34066,884.56848 598.26974,888.54687 594.18805,896.50355 C 590.15797,904.40875 588.14294,916.31807 588.14297,932.23156 C 588.14294,948.0935 590.15797,960.00282 594.18805,967.95957 C 598.26974,975.8647 604.34066,979.81725 612.40081,979.81724 C 620.51254,979.81725 626.58345,975.8647 630.61358,967.95957 C 634.69523,960.00282 636.73609,948.0935 636.73616,932.23156 C 636.73609,916.31807 634.69523,904.40875 630.61358,896.50355 C 626.58345,888.54687 620.51254,884.56848 612.40081,884.56838 M 612.40081,872.1682 C 625.36927,872.16832 635.26357,877.30922 642.08374,887.59092 C 648.95542,897.82116 652.3913,912.70136 652.39139,932.23156 C 652.3913,951.71021 648.95542,966.59041 642.08374,976.8722 C 635.26357,987.10235 625.36927,992.21742 612.40081,992.21742 C 599.43226,992.21742 589.51213,987.10235 582.64039,976.8722 C 575.82028,966.59041 572.41023,951.71021 572.41024,932.23156 C 572.41023,912.70136 575.82028,897.82116 582.64039,887.59092 C 589.51213,877.30922 599.43226,872.16832 612.40081,872.1682 M 717.25982,889.68345 L 696.02452,947.26678 L 738.57263,947.26678 L 717.25982,889.68345 M 708.4247,874.26073 L 726.17245,874.26073 L 770.27058,989.96989 L 753.99535,989.96989 L 743.4552,960.28696 L 691.29695,960.28696 L 680.7568,989.96989 L 664.24906,989.96989 L 708.4247,874.26073 M 785.92581,869.37816 L 800.26351,869.37816 L 800.26351,940.60168 L 842.81162,903.16864 L 861.02439,903.16864 L 814.98873,943.77923 L 862.96191,989.96989 L 844.36165,989.96989 L 800.26351,947.57678 L 800.26351,989.96989 L 785.92581,989.96989 L 785.92581,869.37816 M 927.98535,927.58149 C 935.47705,929.18324 941.31546,932.51579 945.5006,937.57914 C 949.73724,942.64259 951.8556,948.89434 951.85569,956.33441 C 951.8556,967.75293 947.92888,976.58804 940.07552,982.83979 C 932.222,989.09154 921.06186,992.21742 906.59504,992.21742 C 901.73826,992.21742 896.72653,991.72658 891.55982,990.7449 C 886.44473,989.81489 881.14882,988.39403 875.6721,986.48234 L 875.6721,971.36962 C 880.01214,973.90134 884.76554,975.81303 889.9323,977.1047 C 895.09901,978.3964 900.49825,979.04224 906.13003,979.04223 C 915.94679,979.04224 923.41272,977.10472 928.52785,973.22965 C 933.69452,969.35461 936.27789,963.72287 936.27796,956.33441 C 936.27789,949.51435 933.87536,944.19261 929.07036,940.36918 C 924.3169,936.49418 917.67764,934.55665 909.15258,934.55659 L 895.66738,934.55659 L 895.66738,921.69141 L 909.77258,921.69141 C 917.47097,921.69148 923.36105,920.16729 927.44284,917.11884 C 931.52449,914.01888 933.56536,909.57548 933.56543,903.78865 C 933.56536,897.84699 931.44699,893.30027 927.21033,890.14846 C 923.02521,886.94518 917.00597,885.34349 909.15258,885.34339 C 904.86414,885.34349 900.26574,885.8085 895.35738,886.73841 C 890.44895,887.66852 885.04971,889.11521 879.15965,891.07847 L 879.15965,877.12827 C 885.10138,875.47503 890.65562,874.23501 895.82238,873.40822 C 901.04076,872.58166 905.94915,872.16832 910.5476,872.1682 C 922.43104,872.16832 931.8345,874.88085 938.758,880.30582 C 945.68135,885.67933 949.14306,892.96443 949.14315,902.16113 C 949.14306,908.56797 947.30887,913.99304 943.64057,918.43636 C 939.97211,922.82816 934.7537,925.87653 927.98535,927.58149"
           style="font-size:158.72227478px;font-style:normal;font-variant:normal;font-weight:normal;font-stretch:normal;text-align:start;line-height:125%;writing-mode:lr-tb;text-anchor:start;fill:#000000;fill-opacity:1;stroke:none;stroke-width:1px;stroke-linecap:butt;stroke-linejoin:miter;stroke-opacity:1;font-family:Bitstream Vera Sans"
           id="text4116" />
        <path
           d="M 1730.4946,905.46323 L 1699.1066,947.70134 L 1732.1221,992.26448 L 1715.3043,992.26448 L 1690.039,958.16399 L 1664.7736,992.26448 L 1647.9559,992.26448 L 1681.6689,946.84883 L 1650.8234,905.46323 L 1667.6412,905.46323 L 1690.659,936.38618 L 1713.6768,905.46323 L 1730.4946,905.46323 M 1787.7678,886.86297 C 1779.7077,886.86307 1773.6368,890.84146 1769.5551,898.79814 C 1765.525,906.70334 1763.51,918.61266 1763.51,934.52615 C 1763.51,950.38809 1765.525,962.29741 1769.5551,970.25416 C 1773.6368,978.15929 1779.7077,982.11184 1787.7678,982.11183 C 1795.8796,982.11184 1801.9505,978.15929 1805.9806,970.25416 C 1810.0623,962.29741 1812.1031,950.38809 1812.1032,934.52615 C 1812.1031,918.61266 1810.0623,906.70334 1805.9806,898.79814 C 1801.9505,890.84146 1795.8796,886.86307 1787.7678,886.86297 M 1787.7678,874.46279 C 1800.7363,874.46291 1810.6306,879.60381 1817.4508,889.88551 C 1824.3225,900.11575 1827.7583,914.99595 1827.7584,934.52615 C 1827.7583,954.0048 1824.3225,968.885 1817.4508,979.16679 C 1810.6306,989.39694 1800.7363,994.51201 1787.7678,994.51201 C 1774.7993,994.51201 1764.8792,989.39694 1758.0074,979.16679 C 1751.1873,968.885 1747.7773,954.0048 1747.7773,934.52615 C 1747.7773,914.99595 1751.1873,900.11575 1758.0074,889.88551 C 1764.8792,879.60381 1774.7993,874.46291 1787.7678,874.46279 M 1892.6269,891.97804 L 1871.3916,949.56137 L 1913.9397,949.56137 L 1892.6269,891.97804 M 1883.7917,876.55532 L 1901.5395,876.55532 L 1945.6376,992.26448 L 1929.3624,992.26448 L 1918.8222,962.58155 L 1866.664,962.58155 L 1856.1238,992.26448 L 1839.6161,992.26448 L 1883.7917,876.55532 M 1961.2928,871.67275 L 1975.6305,871.67275 L 1975.6305,942.89627 L 2018.1787,905.46323 L 2036.3914,905.46323 L 1990.3558,946.07382 L 2038.3289,992.26448 L 2019.7287,992.26448 L 1975.6305,949.87137 L 1975.6305,992.26448 L 1961.2928,992.26448 L 1961.2928,871.67275 M 2103.3524,929.87608 C 2110.8441,931.47783 2116.6825,934.81038 2120.8676,939.87373 C 2125.1043,944.93718 2127.2226,951.18893 2127.2227,958.629 C 2127.2226,970.04752 2123.2959,978.88263 2115.4426,985.13438 C 2107.589,991.38613 2096.4289,994.51201 2081.9621,994.51201 C 2077.1053,994.51201 2072.0936,994.02117 2066.9269,993.03949 C 2061.8118,992.10948 2056.5159,990.68862 2051.0391,988.77693 L 2051.0391,973.66421 C 2055.3792,976.19593 2060.1326,978.10762 2065.2993,979.39929 C 2070.466,980.69099 2075.8653,981.33683 2081.4971,981.33682 C 2091.3138,981.33683 2098.7798,979.39931 2103.8949,975.52424 C 2109.0616,971.6492 2111.6449,966.01746 2111.645,958.629 C 2111.6449,951.80894 2109.2424,946.4872 2104.4374,942.66377 C 2099.6839,938.78877 2093.0447,936.85124 2084.5196,936.85118 L 2071.0344,936.85118 L 2071.0344,923.986 L 2085.1396,923.986 C 2092.838,923.98607 2098.7281,922.46188 2102.8099,919.41343 C 2106.8915,916.31347 2108.9324,911.87007 2108.9325,906.08324 C 2108.9324,900.14158 2106.814,895.59486 2102.5774,892.44305 C 2098.3922,889.23977 2092.373,887.63808 2084.5196,887.63798 C 2080.2312,887.63808 2075.6328,888.10309 2070.7244,889.033 C 2065.816,889.96311 2060.4167,891.4098 2054.5267,893.37306 L 2054.5267,879.42286 C 2060.4684,877.76962 2066.0227,876.5296 2071.1894,875.70281 C 2076.4078,874.87625 2081.3162,874.46291 2085.9146,874.46279 C 2097.7981,874.46291 2107.2015,877.17544 2114.125,882.60041 C 2121.0484,887.97392 2124.5101,895.25902 2124.5102,904.45572 C 2124.5101,910.86256 2122.6759,916.28763 2119.0076,920.73095 C 2115.3391,925.12275 2110.1207,928.17112 2103.3524,929.87608"
           style="font-size:158.72227478px;font-style:normal;font-variant:normal;font-weight:normal;font-stretch:normal;text-align:start;line-height:125%;writing-mode:lr-tb;text-anchor:start;fill:#000000;fill-opacity:1;stroke:none;stroke-width:1px;stroke-linecap:butt;stroke-linejoin:miter;stroke-opacity:1;font-family:Bitstream Vera Sans"
           id="path4121" />
        <path
           d="M 547.41818,1045.881 C 539.77136,1045.8811 533.72628,1048.8778 529.28292,1054.8712 C 524.8395,1060.813 522.6178,1068.9764 522.61782,1079.3615 C 522.6178,1089.7467 524.81366,1097.936 529.20542,1103.9294 C 533.64878,1109.8711 539.71969,1112.842 547.41818,1112.842 C 555.01323,1112.842 561.03248,1109.8453 565.47594,1103.8519 C 569.91926,1097.8585 572.14096,1089.695 572.14103,1079.3615 C 572.14096,1069.0797 569.91926,1060.9421 565.47594,1054.9487 C 561.03248,1048.9036 555.01323,1045.8811 547.41818,1045.881 M 547.41818,1033.7909 C 559.81829,1033.7909 569.55759,1037.821 576.6361,1045.881 C 583.71445,1053.9412 587.25366,1065.1014 587.25375,1079.3615 C 587.25366,1093.5701 583.71445,1104.7302 576.6361,1112.842 C 569.55759,1120.9021 559.81829,1124.9322 547.41818,1124.9322 C 534.9663,1124.9322 525.20117,1120.9021 518.12276,1112.842 C 511.09598,1104.7302 507.5826,1093.5701 507.58261,1079.3615 C 507.5826,1065.1014 511.09598,1053.9412 518.12276,1045.881 C 525.20117,1037.821 534.9663,1033.7909 547.41818,1033.7909 M 649.48714,1146.0125 L 641.73703,1146.0125 L 641.65953,1122.6846 C 636.23441,1122.5813 630.80934,1121.9613 625.38429,1120.8246 C 619.95919,1119.6363 614.50828,1117.8796 609.03156,1115.5545 L 609.03156,1101.6043 C 614.30161,1104.9111 619.62335,1107.4169 624.99679,1109.1219 C 630.42183,1110.7753 636.0019,1111.6278 641.73703,1111.6795 L 641.73703,1076.339 C 630.3185,1074.479 622.00005,1071.3273 616.78167,1066.8838 C 611.61491,1062.4405 609.03154,1056.3437 609.03156,1048.5936 C 609.03154,1040.1719 611.84742,1033.5326 617.47918,1028.6758 C 623.1109,1023.8191 631.19684,1021.0291 641.73703,1020.3057 L 641.73703,1002.0929 L 649.48714,1002.0929 L 649.48714,1020.0732 C 654.29215,1020.2799 658.94221,1020.7966 663.43734,1021.6232 C 667.93233,1022.3983 672.32406,1023.4833 676.61253,1024.8782 L 676.61253,1038.4409 C 672.32406,1036.271 667.9065,1034.5918 663.35984,1033.4033 C 658.86471,1032.2151 654.24048,1031.5176 649.48714,1031.3108 L 649.48714,1064.4038 C 661.21557,1066.2122 669.84402,1069.4414 675.37251,1074.0914 C 680.90084,1078.7415 683.66504,1085.0966 683.66513,1093.1567 C 683.66504,1101.8885 680.72,1108.7861 674.83,1113.8495 C 668.99151,1118.8612 660.5439,1121.7546 649.48714,1122.5296 L 649.48714,1146.0125 M 641.73703,1063.0088 L 641.73703,1031.2333 C 635.74357,1031.9051 631.17101,1033.6101 628.01933,1036.3484 C 624.86759,1039.0868 623.29173,1042.7294 623.29176,1047.276 C 623.29173,1051.7195 624.73842,1055.1812 627.63182,1057.6612 C 630.57683,1060.1413 635.27856,1061.9238 641.73703,1063.0088 M 649.48714,1077.889 L 649.48714,1111.447 C 656.04884,1110.5686 660.98307,1108.7086 664.28985,1105.8669 C 667.64816,1103.0252 669.32735,1099.2793 669.32742,1094.6292 C 669.32735,1090.0825 667.72566,1086.4658 664.52235,1083.7791 C 661.37058,1081.0924 656.35884,1079.129 649.48714,1077.889 M 727.37575,1109.5094 L 782.01404,1109.5094 L 782.01404,1122.6846 L 708.54298,1122.6846 L 708.54298,1109.5094 C 714.48472,1103.361 722.57066,1095.1201 732.80083,1084.7866 C 743.0826,1074.4015 749.54102,1067.7106 752.17611,1064.7138 C 757.18779,1059.0821 760.67533,1054.3287 762.63876,1050.4536 C 764.65372,1046.5269 765.66123,1042.6777 765.6613,1038.9059 C 765.66123,1032.7576 763.4912,1027.7459 759.15121,1023.8707 C 754.86276,1019.9958 749.25685,1018.0582 742.33347,1018.0581 C 737.42502,1018.0582 732.23245,1018.9107 726.75574,1020.6157 C 721.33064,1022.3208 715.51806,1024.9042 709.31799,1028.3658 L 709.31799,1012.5555 C 715.6214,1010.024 721.51148,1008.1123 726.98825,1006.8205 C 732.46496,1005.5289 737.47669,1004.8831 742.02346,1004.8829 C 754.01024,1004.8831 763.5687,1007.8798 770.69887,1013.8731 C 777.82889,1019.8666 781.39394,1027.875 781.39403,1037.8984 C 781.39394,1042.6519 780.48976,1047.1728 778.68149,1051.4611 C 776.92472,1055.6979 773.69551,1060.7096 768.99385,1066.4963 C 767.70209,1067.9947 763.59454,1072.3348 756.67117,1079.5165 C 749.74769,1086.6466 739.98256,1096.6443 727.37575,1109.5094 M 868.42779,1068.4338 C 871.7861,1069.5706 875.04114,1071.9989 878.19293,1075.719 C 881.39622,1079.439 884.5996,1084.5541 887.80307,1091.0642 L 903.69079,1122.6846 L 886.87305,1122.6846 L 872.07034,1093.0017 C 868.24688,1085.2516 864.52683,1080.1107 860.91018,1077.579 C 857.34507,1075.0473 852.4625,1073.7815 846.26247,1073.7814 L 829.21223,1073.7814 L 829.21223,1122.6846 L 813.557,1122.6846 L 813.557,1006.9755 L 848.89751,1006.9755 C 862.1243,1006.9756 871.99277,1009.7398 878.50293,1015.2681 C 885.01294,1020.7966 888.26798,1029.1409 888.26807,1040.3009 C 888.26798,1047.5861 886.56296,1053.6312 883.153,1058.4362 C 879.79454,1063.2413 874.88614,1066.5739 868.42779,1068.4338 M 829.21223,1019.8407 L 829.21223,1060.9162 L 848.89751,1060.9162 C 856.44089,1060.9163 862.1243,1059.1854 865.94775,1055.7237 C 869.82274,1052.2104 871.76026,1047.0694 871.76034,1040.3009 C 871.76026,1033.5326 869.82274,1028.4434 865.94775,1025.0332 C 862.1243,1021.5716 856.44089,1019.8408 848.89751,1019.8407 L 829.21223,1019.8407 M 923.29857,1035.8834 L 937.55877,1035.8834 L 937.55877,1124.2346 C 937.55874,1135.2915 935.44038,1143.2999 931.20368,1148.26 C 927.0186,1153.22 920.25018,1155.7001 910.89839,1155.7001 L 905.47331,1155.7001 L 905.47331,1143.6099 L 909.27086,1143.6099 C 914.69594,1143.6099 918.39015,1142.3441 920.35352,1139.8124 C 922.31687,1137.3323 923.29855,1132.1398 923.29857,1124.2346 L 923.29857,1035.8834 M 923.29857,1002.0929 L 937.55877,1002.0929 L 937.55877,1020.1507 L 923.29857,1020.1507 L 923.29857,1002.0929"
           style="font-size:158.72227478px;font-style:normal;font-variant:normal;font-weight:normal;font-stretch:normal;text-align:start;line-height:125%;writing-mode:lr-tb;text-anchor:start;fill:#000000;fill-opacity:1;stroke:none;stroke-width:1px;stroke-linecap:butt;stroke-linejoin:miter;stroke-opacity:1;font-family:Bitstream Vera Sans"
           id="text4123" />
        <path
           d="M 1717.1766,1044.6411 C 1709.5298,1044.6412 1703.4847,1047.6379 1699.0413,1053.6313 C 1694.5979,1059.5731 1692.3762,1067.7365 1692.3762,1078.1216 C 1692.3762,1088.5068 1694.5721,1096.6961 1698.9638,1102.6895 C 1703.4072,1108.6312 1709.4781,1111.6021 1717.1766,1111.6021 C 1724.7716,1111.6021 1730.7909,1108.6054 1735.2343,1102.612 C 1739.6777,1096.6186 1741.8994,1088.4551 1741.8994,1078.1216 C 1741.8994,1067.8398 1739.6777,1059.7022 1735.2343,1053.7088 C 1730.7909,1047.6637 1724.7716,1044.6412 1717.1766,1044.6411 M 1717.1766,1032.551 C 1729.5767,1032.551 1739.316,1036.5811 1746.3945,1044.6411 C 1753.4728,1052.7013 1757.0121,1063.8615 1757.0121,1078.1216 C 1757.0121,1092.3302 1753.4728,1103.4903 1746.3945,1111.6021 C 1739.316,1119.6622 1729.5767,1123.6923 1717.1766,1123.6923 C 1704.7247,1123.6923 1694.9596,1119.6622 1687.8812,1111.6021 C 1680.8544,1103.4903 1677.341,1092.3302 1677.341,1078.1216 C 1677.341,1063.8615 1680.8544,1052.7013 1687.8812,1044.6411 C 1694.9596,1036.5811 1704.7247,1032.551 1717.1766,1032.551 M 1819.2455,1144.7726 L 1811.4954,1144.7726 L 1811.4179,1121.4447 C 1805.9928,1121.3414 1800.5677,1120.7214 1795.1427,1119.5847 C 1789.7176,1118.3964 1784.2667,1116.6397 1778.79,1114.3146 L 1778.79,1100.3644 C 1784.06,1103.6712 1789.3817,1106.177 1794.7552,1107.882 C 1800.1802,1109.5354 1805.7603,1110.3879 1811.4954,1110.4396 L 1811.4954,1075.0991 C 1800.0769,1073.2391 1791.7584,1070.0874 1786.5401,1065.6439 C 1781.3733,1061.2006 1778.7899,1055.1038 1778.79,1047.3537 C 1778.7899,1038.932 1781.6058,1032.2927 1787.2376,1027.4359 C 1792.8693,1022.5792 1800.9552,1019.7892 1811.4954,1019.0658 L 1811.4954,1000.853 L 1819.2455,1000.853 L 1819.2455,1018.8333 C 1824.0505,1019.04 1828.7006,1019.5567 1833.1957,1020.3833 C 1837.6907,1021.1584 1842.0825,1022.2434 1846.3709,1023.6383 L 1846.3709,1037.201 C 1842.0825,1035.0311 1837.6649,1033.3519 1833.1182,1032.1634 C 1828.6231,1030.9752 1823.9989,1030.2777 1819.2455,1030.0709 L 1819.2455,1063.1639 C 1830.974,1064.9723 1839.6024,1068.2015 1845.1309,1072.8515 C 1850.6592,1077.5016 1853.4234,1083.8567 1853.4235,1091.9168 C 1853.4234,1100.6486 1850.4784,1107.5462 1844.5884,1112.6096 C 1838.7499,1117.6213 1830.3023,1120.5147 1819.2455,1121.2897 L 1819.2455,1144.7726 M 1811.4954,1061.7689 L 1811.4954,1029.9934 C 1805.502,1030.6652 1800.9294,1032.3702 1797.7777,1035.1085 C 1794.626,1037.8469 1793.0501,1041.4895 1793.0502,1046.0361 C 1793.0501,1050.4796 1794.4968,1053.9413 1797.3902,1056.4213 C 1800.3352,1058.9014 1805.037,1060.6839 1811.4954,1061.7689 M 1819.2455,1076.6491 L 1819.2455,1110.2071 C 1825.8072,1109.3287 1830.7415,1107.4687 1834.0482,1104.627 C 1837.4066,1101.7853 1839.0857,1098.0394 1839.0858,1093.3893 C 1839.0857,1088.8426 1837.4841,1085.2259 1834.2807,1082.5392 C 1831.129,1079.8525 1826.1172,1077.8891 1819.2455,1076.6491 M 1897.1341,1108.2695 L 1951.7724,1108.2695 L 1951.7724,1121.4447 L 1878.3014,1121.4447 L 1878.3014,1108.2695 C 1884.2431,1102.1211 1892.329,1093.8802 1902.5592,1083.5467 C 1912.841,1073.1616 1919.2994,1066.4707 1921.9345,1063.4739 C 1926.9462,1057.8422 1930.4337,1053.0888 1932.3971,1049.2137 C 1934.4121,1045.287 1935.4196,1041.4378 1935.4197,1037.666 C 1935.4196,1031.5177 1933.2496,1026.506 1928.9096,1022.6308 C 1924.6211,1018.7559 1919.0152,1016.8183 1912.0919,1016.8182 C 1907.1834,1016.8183 1901.9908,1017.6708 1896.5141,1019.3758 C 1891.089,1021.0809 1885.2764,1023.6643 1879.0764,1027.1259 L 1879.0764,1011.3156 C 1885.3798,1008.7841 1891.2699,1006.8724 1896.7466,1005.5806 C 1902.2233,1004.289 1907.2351,1003.6432 1911.7818,1003.643 C 1923.7686,1003.6432 1933.3271,1006.6399 1940.4573,1012.6332 C 1947.5873,1018.6267 1951.1523,1026.6351 1951.1524,1036.6585 C 1951.1523,1041.412 1950.2481,1045.9329 1948.4399,1050.2212 C 1946.6831,1054.458 1943.4539,1059.4697 1938.7522,1065.2564 C 1937.4605,1066.7548 1933.3529,1071.0949 1926.4296,1078.2766 C 1919.5061,1085.4067 1909.7409,1095.4044 1897.1341,1108.2695 M 2038.1862,1067.1939 C 2041.5445,1068.3307 2044.7995,1070.759 2047.9513,1074.4791 C 2051.1546,1078.1991 2054.358,1083.3142 2057.5615,1089.8243 L 2073.4492,1121.4447 L 2056.6314,1121.4447 L 2041.8287,1091.7618 C 2038.0053,1084.0117 2034.2852,1078.8708 2030.6686,1076.3391 C 2027.1035,1073.8074 2022.2209,1072.5416 2016.0209,1072.5415 L 1998.9706,1072.5415 L 1998.9706,1121.4447 L 1983.3154,1121.4447 L 1983.3154,1005.7356 L 2018.6559,1005.7356 C 2031.8827,1005.7357 2041.7512,1008.4999 2048.2613,1014.0282 C 2054.7713,1019.5567 2058.0264,1027.901 2058.0265,1039.061 C 2058.0264,1046.3462 2056.3213,1052.3913 2052.9114,1057.1963 C 2049.5529,1062.0014 2044.6445,1065.334 2038.1862,1067.1939 M 1998.9706,1018.6008 L 1998.9706,1059.6763 L 2018.6559,1059.6763 C 2026.1993,1059.6764 2031.8827,1057.9455 2035.7061,1054.4838 C 2039.5811,1050.9705 2041.5186,1045.8295 2041.5187,1039.061 C 2041.5186,1032.2927 2039.5811,1027.2035 2035.7061,1023.7933 C 2031.8827,1020.3317 2026.1993,1018.6009 2018.6559,1018.6008 L 1998.9706,1018.6008 M 2093.057,1034.6435 L 2107.3172,1034.6435 L 2107.3172,1122.9947 C 2107.3171,1134.0516 2105.1988,1142.06 2100.9621,1147.0201 C 2096.777,1151.9801 2090.0086,1154.4602 2080.6568,1154.4602 L 2075.2317,1154.4602 L 2075.2317,1142.37 L 2079.0292,1142.37 C 2084.4543,1142.37 2088.1485,1141.1042 2090.1119,1138.5725 C 2092.0753,1136.0924 2093.0569,1130.8999 2093.057,1122.9947 L 2093.057,1034.6435 M 2093.057,1000.853 L 2107.3172,1000.853 L 2107.3172,1018.9108 L 2093.057,1018.9108 L 2093.057,1000.853"
           style="font-size:158.72227478px;font-style:normal;font-variant:normal;font-weight:normal;font-stretch:normal;text-align:start;line-height:125%;writing-mode:lr-tb;text-anchor:start;fill:#000000;fill-opacity:1;stroke:none;stroke-width:1px;stroke-linecap:butt;stroke-linejoin:miter;stroke-opacity:1;font-family:Bitstream Vera Sans"
           id="path4128" />
      </g>
    </g>
  </g>
</svg>
